<?xml version="1.0" encoding="utf-8"?>
<!-- Generator: Adobe Illustrator 25.1.0, SVG Export Plug-In . SVG Version: 6.00 Build 0)  -->
<svg version="1.1" id="Layer_1"
	xmlns="http://www.w3.org/2000/svg"
	xmlns:xlink="http://www.w3.org/1999/xlink" x="0px" y="0px" viewBox="-20 30 439.33 297.09" style="enable-background:new 0 0 739.33 297.09;" xml:space="preserve">
	<style type="text/css">
	.st0{fill:#007DC5;}
	.st1{fill:url(#SVGID_1_);}
	.st2{fill:url(#SVGID_2_);}
	.st3{fill:url(#SVGID_3_);}
	.st4{fill:url(#SVGID_4_);}
	.st5{fill:url(#SVGID_5_);}
	.st6{fill:url(#SVGID_6_);}
	.st7{fill:url(#SVGID_7_);}
	.st8{fill:url(#SVGID_8_);}
	.st9{fill:url(#SVGID_9_);}
	</style>
	<g>
		<g>
			<linearGradient id="SVGID_1_" gradientUnits="userSpaceOnUse" x1="76.4531" y1="70.8968" x2="76.4531" y2="119.0746">
				<stop offset="0" style="stop-color:#FFC708"/>
				<stop offset="0.9997" style="stop-color:#F05731"/>
				<stop offset="1" style="stop-color:#F05731"/>
			</linearGradient>
			<path class="st1" d="M64.77,124.82c0-14.6,9.49-23.36,23.36-23.36V76.64c0-7.3-4.87-12.17-11.68-12.17s-11.68,4.87-11.68,12.17
			V124.82z"/>
			<linearGradient id="SVGID_2_" gradientUnits="userSpaceOnUse" x1="102.9352" y1="107.9182" x2="90.3363" y2="199.0745">
				<stop offset="0" style="stop-color:#F80000"/>
				<stop offset="1" style="stop-color:#EE3984"/>
			</linearGradient>
			<path class="st2" d="M106.14,232.61c5.84,0,11.19-0.97,16.06-2.68c-24.58,4.14-34.07-12.65-34.07-31.63v-77.86h28.47
			c6.57,0,10.95-3.89,10.95-9.49c0-5.6-4.38-9.49-10.95-9.49H88.13c-13.87,0-23.36,8.76-23.36,23.36v66.91
			C64.77,218.5,80.1,232.61,106.14,232.61z"/>
			<linearGradient id="SVGID_3_" gradientUnits="userSpaceOnUse" x1="85.4423" y1="215.7541" x2="151.4033" y2="194.8241">
				<stop offset="0" style="stop-color:#EE3984"/>
				<stop offset="0.9997" style="stop-color:#7800DA"/>
				<stop offset="1" style="stop-color:#7800DA"/>
			</linearGradient>
			<path class="st3" d="M122.2,229.93c9.73-3.65,17.28-10.46,22.14-20.44l-10.95-19.71c-4.87,14.6-13.38,22.39-25.06,22.39
			c-12.17,0-20.2-7.06-20.2-23.12v9.25C88.13,217.28,97.62,234.07,122.2,229.93z"/>
			<linearGradient id="SVGID_4_" gradientUnits="userSpaceOnUse" x1="175.1055" y1="133.2115" x2="199.2066" y2="218.1998">
				<stop offset="0" style="stop-color:#FF0000"/>
				<stop offset="0.9994" style="stop-color:#EE3984"/>
				<stop offset="1" style="stop-color:#EE3984"/>
			</linearGradient>
			<path class="st4" d="M222.2,226.04c-55.48,8.27-73-21.41-73-59.61c0-27.74,17.03-46.72,41.61-46.72c9,0,16.55,1.95,23.36,5.11
			c3.16,1.46,5.84,1.95,8.27,1.95c5.84,0,9.73-3.89,9.73-9.73c0-3.65-2.19-7.3-7.3-9.73c-9.25-4.62-21.17-7.3-34.07-7.3
			c-38.45,0-64.97,27.25-64.97,66.91c0,38.93,25.55,65.94,66.67,65.94C203.71,232.85,213.44,230.66,222.2,226.04z"/>
			<linearGradient id="SVGID_5_" gradientUnits="userSpaceOnUse" x1="125.8477" y1="133.4574" x2="232.1797" y2="133.4574">
				<stop offset="0" style="stop-color:#FFC708"/>
				<stop offset="1" style="stop-color:#FA3B00"/>
			</linearGradient>
			<path class="st5" d="M125.85,166.91c0-39.66,26.52-66.91,64.97-66.91c12.9,0,24.82,2.68,34.07,7.3c5.11,2.43,7.3,6.08,7.3,9.73
			c0,5.84-3.89,9.73-9.73,9.73c-2.43,0-5.11-0.49-8.27-1.95c-8.27-3.89-16.3-5.11-23.36-5.11
			C156.99,119.71,125.85,141.12,125.85,166.91z"/>
			<linearGradient id="SVGID_6_" gradientUnits="userSpaceOnUse" x1="259.6752" y1="164.9678" x2="333.1587" y2="164.9678">
				<stop offset="0" style="stop-color:#FF0000"/>
				<stop offset="1" style="stop-color:#EE3984"/>
			</linearGradient>
			<path class="st6" d="M271.11,107.79c-2.19,2.19-3.41,4.87-3.41,8.03c0,8.03,7.54,19.95,25.06,32.12l19.95,13.87
			c14.6,10.22,20.44,19.95,20.44,34.55c0,10.46-4.14,19.47-10.95,25.79c2.43-2.19,3.89-5.11,3.89-9c0-8.52-8.52-21.9-26.77-34.55
			l-18.25-12.65c-15.33-10.71-21.41-20.68-21.41-34.31c0-8.03,2.92-15.33,7.79-20.68C268.68,109.73,269.89,108.76,271.11,107.79z"/>
			<linearGradient id="SVGID_7_" gradientUnits="userSpaceOnUse" x1="318.9508" y1="200.4353" x2="254.2583" y2="217.5598">
				<stop offset="0" style="stop-color:#EE3984"/>
				<stop offset="1" style="stop-color:#7800DA"/>
			</linearGradient>
			<path class="st7" d="M255.3,217.04c0,3.89,1.95,7.06,7.06,9.49c7.06,3.41,18.49,6.33,28.71,6.33c12.9,0,23.6-3.89,31.15-10.71
			c2.43-2.19,3.89-5.11,3.89-9c0-8.52-8.52-21.9-26.77-34.55c8.27,5.84,11.68,10.71,11.68,17.76c0,10.46-8.27,17.52-20.2,17.52
			c-11.44,0-21.17-5.84-26.52-5.84C258.95,208.04,255.3,211.69,255.3,217.04z"/>
			<linearGradient id="SVGID_8_" gradientUnits="userSpaceOnUse" x1="267.7049" y1="123.9679" x2="329.5089" y2="123.9679">
				<stop offset="0" style="stop-color:#FFC708"/>
				<stop offset="1" style="stop-color:#F05731"/>
				<stop offset="1" style="stop-color:#F05731"/>
			</linearGradient>
			<path class="st8" d="M292.77,147.94c-7.79-5.6-11.19-10.71-11.19-16.79c0-7.79,6.33-12.65,15.33-12.65
			c11.44,0,16.79,5.35,23.6,5.35c5.35,0,9-3.65,9-9c0-3.89-1.95-7.06-7.06-9.49c-8.03-3.89-16.79-5.35-26.28-5.35
			c-9.98,0-18.74,2.92-25.06,7.79c-2.19,2.19-3.41,4.87-3.41,8.03C267.7,123.85,275.25,135.77,292.77,147.94z"/>
			<linearGradient id="SVGID_9_" gradientUnits="userSpaceOnUse" x1="186.6893" y1="202.9795" x2="231.7204" y2="129.4077">
				<stop offset="0" style="stop-color:#EE3984"/>
				<stop offset="1" style="stop-color:#7800DA"/>
			</linearGradient>
			<path class="st9" d="M149.21,166.43c0,38.2,17.52,67.89,73,59.61c17.76-9.25,30.42-27.98,39.17-56.69l5.11-16.79
			c-4.87-6.33-6.81-13.38-6.81-20.93c0-8.03,2.92-15.33,7.79-20.68c-7.3,7.79-13.38,19.22-18.25,35.28l-5.6,18.49
			c-9.98,32.61-25.79,48.18-50.37,48.18C166.24,212.9,149.21,194.17,149.21,166.43z"/>
		</g>
	</g>
	<text x="92" y="285" font-size="56" fill="#dfdfdf">Research</text>
</svg>
